<?xml version="1.0" standalone="no"?><!DOCTYPE svg PUBLIC "-//W3C//DTD SVG 1.1//EN" "http://www.w3.org/Graphics/SVG/1.1/DTD/svg11.dtd">
<svg t="1627976410349" class="icon" viewBox="0 0 1024 1024" version="1.1" xmlns="http://www.w3.org/2000/svg" p-id="1465"
     width="200" height="200"><defs><style type="text/css"></style></defs><path d="M927.616 752.224l-0.224-0.224h29.312a85.248 85.248 0 0 0-32.128-38.496c-11.104-7.424-25.728-13.76-46.528-20.416-5.12-1.632-10.56-3.296-17.344-5.28l-18.432-5.344c-88.192-25.792-130.304-54.176-130.304-130.432 0-23.712 6.784-44.416 18.848-65.184a265.28 265.28 0 0 1 13.28-20.384c-2.688 3.808 9.024-12.736 11.488-16.384 15.328-22.592 21.536-39.328 21.536-66.048v-72c0-42.016-14.464-72.672-42.048-89.408-29.728-11.584-47.456-27.136-53.248-46.56-1.824-6.08-2.112-19.232 6.72-25.6a25.6 25.6 0 0 1 16.576-4.448l0.736 0.544-0.224-0.416c87.392 12.448 135.52 79.296 135.52 165.888v72c0 96-65.152 120-65.152 168 0 72 112.096 60.224 184.096 108.224a149.12 149.12 0 0 1 55.424 66.496 64 64 0 0 1-42.304 87.104l-0.448 0.096-0.032 0.096h-0.384l-0.192 0.032-0.032-0.032c-31.84-0.16-51.168-12.544-58.048-37.152-3.072-10.656 1.216-18.976 12.832-24.896l0.736 0.224z m-551.904-223.328c14.784 24.32 22.976 48.288 22.976 75.648 0 87.264-49.408 119.296-159.104 150.304l-23.328 6.56c-8.768 2.496-15.808 4.544-22.464 6.592-30.432 9.344-51.904 18.336-68.672 29.28-29.504 19.296-48.288 45.888-57.856 82.688h798.624c-9.472-36.736-28.256-63.296-57.952-82.592-16.544-10.752-37.44-19.616-66.56-28.736a896.224 896.224 0 0 0-23.392-6.944l-24.32-6.88c-108.384-30.944-157.536-63.232-157.536-150.24 0-27.168 8-50.976 22.464-75.2 4.672-7.84 9.632-15.168 16.608-24.864-3.552 4.96 11.968-16.48 15.328-21.312 22.112-31.744 31.488-56.448 31.488-94.592V296.032c0-94.4-55.488-152-154.72-152-100.64 0-155.968 57.504-154.752 151.168V389.44c-0.512 37.984 8.768 62.336 31.296 94.176 3.36 4.768 18.304 25.056 15.136 20.736 7.008 9.6 12 16.864 16.704 24.608zM248.576 296c-1.632-123.424 76.64-216 218.752-216 140.48 0 218.72 92.32 218.72 216v92.576c0 123.424-85.888 154.272-85.888 216 0 92.576 147.776 77.44 242.688 139.168 43.264 28.128 71.616 68.224 85.024 120.288A64 64 0 0 1 865.92 944H67.296a64 64 0 0 1-61.952-80.128c13.536-52 41.792-92.032 84.768-120.128 94.4-61.696 244.576-46.592 244.576-139.168 0-61.696-87.744-92.576-86.144-216V296z" p-id="1466"></path></svg>
